<?xml version="1.0" standalone="no"?>
<!DOCTYPE svg PUBLIC "-//W3C//DTD SVG 20010904//EN"
 "http://www.w3.org/TR/2001/REC-SVG-20010904/DTD/svg10.dtd">
<svg version="1.0" xmlns="http://www.w3.org/2000/svg"
 width="256.000000pt" height="256.000000pt" viewBox="0 0 256.000000 256.000000"
 preserveAspectRatio="xMidYMid meet">

<g transform="translate(0.000000,256.000000) scale(0.100000,-0.100000)"
fill="#000080" stroke="none">
<path d="M1122 2530 c-320 -45 -606 -202 -805 -441 -522 -628 -327 -1567 400
-1934 101 -50 202 -85 324 -111 118 -25 372 -25 489 0 503 109 876 482 986
986 26 118 26 380 0 500 -107 496 -474 869 -966 981 -98 22 -331 33 -428 19z
m148 -585 c0 -374 -2 -426 -15 -432 -9 -3 -18 -4 -20 -2 -4 5 -224 823 -222
826 1 1 13 4 27 8 21 5 27 1 37 -24 13 -35 51 -49 92 -35 19 7 29 20 35 47 8
32 13 37 38 37 l28 0 0 -425z m86 388 c6 -27 16 -40 35 -47 41 -14 79 0 92 35
10 25 16 29 37 24 14 -4 26 -7 27 -9 2 -2 -218 -820 -222 -825 -2 -2 -11 -1
-20 2 -13 6 -15 58 -15 432 l0 425 28 0 c25 0 30 -5 38 -37z m-262 -413 c84
-314 107 -413 98 -422 -6 -6 -14 -10 -16 -7 -7 7 -416 717 -422 732 -3 8 5 18
18 24 19 9 26 7 44 -15 15 -18 30 -25 54 -24 45 1 65 24 64 72 -1 38 4 45 41
49 6 0 59 -184 119 -409z m512 404 c17 -5 21 -13 20 -45 -1 -47 19 -70 64 -71
25 -1 39 6 54 25 20 24 36 25 65 1 7 -6 -413 -726 -427 -731 -7 -3 -16 -3 -19
1 -7 7 208 826 217 826 3 0 15 -3 26 -6z m-670 -476 c115 -198 210 -364 212
-368 2 -4 -3 -10 -11 -13 -9 -3 -124 105 -316 296 -299 299 -301 302 -281 321
18 18 21 18 37 4 29 -26 73 -27 97 -2 18 17 22 79 5 89 -11 7 17 34 37 35 6 0
105 -163 220 -362z m937 348 c12 -9 14 -16 8 -21 -12 -7 -14 -64 -3 -81 23
-35 68 -37 105 -6 16 14 20 14 37 -4 20 -19 18 -22 -282 -322 -234 -233 -305
-299 -314 -289 -8 9 39 98 199 375 116 199 215 362 221 362 6 0 19 -7 29 -14z
m-1076 -457 c184 -185 299 -307 296 -315 -3 -8 -6 -14 -8 -14 -10 0 -731 422
-733 430 -5 15 25 53 33 41 10 -17 71 -13 89 5 25 24 24 68 -1 97 -15 15 -14
19 2 37 10 11 19 20 19 20 1 0 137 -136 303 -301z m1288 281 c16 -18 17 -22 3
-37 -31 -37 -29 -82 6 -105 17 -12 74 -9 81 3 8 12 38 -26 33 -41 -2 -5 -165
-104 -363 -218 -275 -160 -363 -206 -372 -198 -10 9 54 80 285 312 163 165
300 301 303 302 3 1 14 -7 24 -18z m-1377 -426 c196 -113 359 -208 361 -210 3
-2 -1 -10 -7 -16 -9 -9 -107 13 -419 97 -225 59 -409 109 -411 110 -2 2 0 14
3 28 6 21 12 24 46 23 47 -1 70 19 71 64 1 24 -6 39 -24 54 -22 18 -24 25 -15
44 6 13 16 21 24 18 7 -3 174 -98 371 -212z m1539 194 c9 -19 7 -26 -15 -44
-18 -15 -25 -30 -24 -54 1 -45 24 -65 71 -64 34 1 40 -2 46 -23 3 -14 5 -26 3
-28 -15 -10 -819 -217 -825 -211 -4 4 -3 14 2 22 9 13 711 423 726 424 3 0 11
-10 16 -22z m-1597 -353 c217 -59 396 -108 399 -110 2 -2 1 -11 -2 -20 -6 -13
-58 -15 -432 -15 l-425 0 0 28 c0 25 5 30 37 38 27 6 40 16 47 35 13 39 0 78
-32 91 -15 7 -28 13 -30 14 -2 1 0 14 4 28 4 19 11 25 23 22 9 -3 194 -53 411
-111z m1694 89 c4 -15 6 -27 4 -28 -2 -1 -15 -7 -30 -14 -32 -13 -45 -52 -32
-91 7 -19 20 -29 47 -35 32 -8 37 -13 37 -38 l0 -28 -424 0 c-384 0 -424 2
-430 16 -4 9 -5 18 -4 20 3 2 804 221 819 223 4 1 10 -11 13 -25z m-1297 -269
c3 -9 4 -18 2 -20 -5 -4 -823 -224 -826 -222 -1 1 -4 13 -8 27 -5 21 -1 27 24
37 35 13 49 51 35 92 -7 19 -20 29 -47 35 -32 8 -37 13 -37 38 l0 28 425 0
c374 0 426 -2 432 -15z m1323 -13 c0 -25 -5 -30 -37 -38 -27 -6 -40 -16 -47
-35 -14 -41 0 -79 35 -92 25 -10 29 -16 24 -37 -4 -14 -7 -26 -8 -27 -3 -2
-821 217 -825 221 -1 2 0 11 4 20 6 14 46 16 430 16 l424 0 0 -28z m-1303 -57
c3 -10 -734 -442 -741 -434 -24 29 -23 45 1 65 19 15 26 30 26 53 0 44 -24 66
-72 65 -34 -1 -40 2 -46 23 -3 14 -5 26 -3 28 12 8 797 214 812 212 11 -1 21
-7 23 -12z m858 -92 c220 -58 401 -107 403 -108 2 -2 0 -14 -3 -28 -6 -21 -12
-24 -46 -23 -48 1 -72 -21 -72 -65 0 -22 7 -39 25 -53 22 -18 24 -25 15 -43
-5 -13 -13 -23 -16 -23 -3 0 -168 94 -366 208 -219 127 -361 215 -363 225 -2
9 2 17 10 17 7 0 193 -48 413 -107z m-832 43 c3 -8 -112 -130 -296 -315 -299
-299 -302 -301 -321 -281 -18 17 -18 21 -4 37 31 37 29 82 -6 105 -17 12 -74
9 -81 -3 -8 -12 -38 26 -33 41 3 9 714 427 729 429 4 1 9 -5 12 -13z m900
-284 c119 -68 217 -130 217 -136 -1 -19 -28 -48 -35 -37 -10 17 -72 13 -89 -5
-25 -24 -24 -68 2 -97 14 -16 14 -19 -4 -37 -19 -20 -22 -18 -321 282 -354
353 -366 375 -135 241 81 -47 245 -142 365 -211z m-856 236 c7 -9 -51 -119
-199 -373 -114 -198 -213 -361 -218 -363 -15 -5 -53 25 -41 33 12 7 15 64 3
81 -23 35 -68 37 -105 6 -16 -14 -20 -14 -37 4 -20 19 -18 21 278 320 163 165
300 301 303 302 4 1 11 -4 16 -10z m601 -290 c300 -300 302 -303 282 -322 -18
-18 -21 -18 -37 -4 -29 26 -73 27 -97 2 -18 -18 -22 -79 -5 -89 12 -8 -26 -38
-41 -33 -5 2 -104 165 -218 363 -148 254 -206 364 -199 373 5 6 10 12 11 12 1
0 137 -136 304 -302z m-538 250 c0 -12 -211 -809 -215 -816 -2 -2 -14 0 -28 3
-21 6 -24 12 -23 46 1 48 -21 72 -65 72 -22 0 -39 -7 -53 -25 -18 -22 -25 -24
-44 -15 -13 6 -21 16 -17 24 5 14 372 653 401 701 15 24 44 30 44 10z m402
-353 c114 -198 208 -363 208 -366 0 -3 -10 -11 -22 -16 -19 -9 -26 -7 -44 15
-14 18 -31 25 -53 25 -44 0 -66 -24 -65 -72 1 -34 -2 -40 -23 -46 -14 -3 -26
-5 -28 -3 -5 7 -215 804 -215 816 0 8 8 12 17 10 11 -2 97 -142 225 -363z
m-348 349 c14 -5 16 -53 16 -430 l0 -424 -28 0 c-25 0 -30 5 -38 37 -6 27 -16
40 -35 47 -41 14 -79 0 -92 -35 -10 -25 -16 -29 -37 -24 -14 4 -26 8 -27 9 -1
1 20 82 47 181 26 99 76 285 110 413 35 127 64 232 66 232 1 0 9 -3 18 -6z
m136 -226 c34 -128 84 -314 110 -413 27 -99 48 -180 47 -181 -1 -1 -13 -5 -27
-9 -21 -5 -27 -1 -37 24 -13 35 -51 49 -92 35 -19 -7 -29 -20 -35 -47 -8 -32
-13 -37 -38 -37 l-28 0 0 424 c0 423 1 431 31 435 3 1 34 -104 69 -231z"/>
</g>
</svg>
